<svg id="Lauco_Coins" data-name="Lauco Coins" xmlns="http://www.w3.org/2000/svg" width="65" height="65" viewBox="0 0 65 65">
  <g id="Group_1126" data-name="Group 1126" transform="translate(91.126 -11.431)">
    <path id="Path_835" data-name="Path 835" d="M-26.126,49.348A27.088,27.088,0,0,1-53.218,76.431,27.087,27.087,0,0,1-75.2,65.164a28.827,28.827,0,0,0,6.581,1.878A23.467,23.467,0,0,0-35.51,64.764a23.469,23.469,0,0,0,0-30.836,29.1,29.1,0,0,0-1.878-6.572A27.038,27.038,0,0,1-26.126,49.348ZM-64.043,67.4c-.4,0-.794-.009-1.183-.027a21.665,21.665,0,0,0,30.044-6.01,21.667,21.667,0,0,0,0-24.035c.018.388.027.785.027,1.183A28.921,28.921,0,0,1-64.043,67.4Zm0-1.806A27.083,27.083,0,0,1-91.126,38.514,27.083,27.083,0,0,1-64.043,11.431,27.083,27.083,0,0,1-36.959,38.514,27.113,27.113,0,0,1-64.043,65.6Zm0-3.611A23.472,23.472,0,0,0-40.57,38.514,23.473,23.473,0,0,0-64.043,15.042,23.473,23.473,0,0,0-87.515,38.514,23.5,23.5,0,0,0-64.043,61.987Z" fill="#626262"/>
    <path id="Path_836" data-name="Path 836" d="M-41.8,39.1A21.7,21.7,0,0,1-63.463,60.769,21.672,21.672,0,0,1-85.13,39.1,21.666,21.666,0,0,1-63.463,17.436,21.661,21.661,0,0,1-41.8,39.1Z" transform="translate(-0.583 -0.584)" fill="#626262"/>
  </g>
</svg>
