<svg id="Orders_Button" data-name="Orders Button" xmlns="http://www.w3.org/2000/svg" width="56.875" height="65" viewBox="0 0 56.875 65">
  <path id="Icon_awesome-shopping-bag" data-name="Icon awesome-shopping-bag" d="M44.687,20.312V16.25a16.25,16.25,0,1,0-32.5,0v4.062H0V54.844A10.156,10.156,0,0,0,10.156,65H46.719A10.156,10.156,0,0,0,56.875,54.844V20.312ZM20.313,16.25a8.125,8.125,0,0,1,16.25,0v4.062H20.313ZM40.625,31.484a3.047,3.047,0,1,1,3.047-3.047A3.047,3.047,0,0,1,40.625,31.484Zm-24.375,0A3.047,3.047,0,1,1,19.3,28.437,3.047,3.047,0,0,1,16.25,31.484Z" fill="#626262"/>
</svg>
